<svg xmlns="http://www.w3.org/2000/svg"  viewBox="0 0 48 48" width="48px" height="48px"><path d="M 24 4 C 17.447502 4 12.395909 7.3872802 9.0761719 11.302734 C 5.7564344 15.218189 4 19.499626 4 22.5 C 4 25.849212 5.9030324 27.880187 7.3574219 28.949219 C 7.1375319 29.464418 7 30.04624 7 30.6875 C 7 32.46639 7.5296504 33.863604 8.4667969 34.714844 C 9.0375337 35.233262 9.6372764 35.489014 10.210938 35.673828 C 10.482765 38.522763 11.729758 40.474806 13.220703 41.544922 C 14.897876 42.748701 16.71465 43.175427 17.164062 43.435547 C 18.011412 43.925586 18.739696 44.530319 19.796875 45.072266 C 20.854054 45.614212 22.205878 46 24 46 C 25.794122 46 27.145859 45.612455 28.203125 45.070312 C 29.260391 44.528171 29.988426 43.924166 30.835938 43.433594 C 31.28535 43.173474 33.102124 42.748701 34.779297 41.544922 C 36.270242 40.474806 37.517235 38.522763 37.789062 35.673828 C 38.362893 35.489204 38.962362 35.233235 39.533203 34.714844 C 40.470521 33.863649 41 32.46639 41 30.6875 C 41 30.106316 40.881866 29.577868 40.697266 29.099609 C 40.956065 28.932187 41.222529 28.743771 41.486328 28.513672 C 42.754995 27.407077 44 25.409248 44 22.5 C 44 19.486493 42.210255 15.211285 38.876953 11.298828 C 35.543651 7.3863709 30.497189 4 24 4 z M 24 7 C 29.460811 7 33.664599 9.8103008 36.591797 13.246094 C 39.518995 16.681886 41 20.906507 41 22.5 C 41 24.612752 40.245005 25.614048 39.513672 26.251953 C 39.236231 26.493951 38.98643 26.648964 38.765625 26.769531 C 38.507867 26.615461 38.251645 26.489221 38 26.378906 L 38 22.5 C 38 21.360954 37.308418 20.528999 36.527344 19.914062 C 35.746269 19.299126 34.758489 18.812566 33.556641 18.390625 C 31.152945 17.546744 27.888805 17 24 17 C 20.110994 17 16.846938 17.546373 14.443359 18.390625 C 13.24157 18.812751 12.25355 19.301409 11.472656 19.916016 C 10.691762 20.530623 10 21.360608 10 22.5 L 10 26.378906 C 9.7655964 26.481662 9.5267395 26.598229 9.2871094 26.736328 C 8.3953087 26.209279 7 24.998903 7 22.5 C 7 20.893374 8.4547223 16.674982 11.365234 13.242188 C 14.275747 9.8093916 18.473498 7 24 7 z M 21.271484 9.0058594 C 21.063688 8.9712656 20.846594 9.080875 20.746094 9.296875 L 18.257812 14.619141 C 18.121813 14.910141 18.257875 15.262234 18.546875 15.365234 L 20.488281 16.058594 C 20.764281 16.156594 21.059859 15.981687 21.130859 15.679688 L 22 11.962891 L 23.646484 13.722656 C 23.841484 13.931656 24.158516 13.931656 24.353516 13.722656 L 26 11.962891 L 26.869141 15.679688 C 26.940141 15.981687 27.236672 16.156594 27.513672 16.058594 L 29.453125 15.365234 C 29.742125 15.263234 29.878187 14.910141 29.742188 14.619141 L 27.253906 9.296875 C 27.118906 9.008875 26.779297 8.9118437 26.529297 9.0898438 L 24.277344 10.695312 C 24.109344 10.815312 23.890656 10.815312 23.722656 10.695312 L 21.472656 9.0898438 C 21.409906 9.0453438 21.34075 9.0173906 21.271484 9.0058594 z M 24 20 C 27.602195 20 30.588946 20.527834 32.5625 21.220703 C 33.155549 21.428908 33.617731 21.649088 34.007812 21.863281 C 31.618965 22.395893 28.048825 23 24 23 C 19.953282 23 16.384974 22.395694 13.996094 21.863281 C 14.38552 21.649273 14.846614 21.428251 15.4375 21.220703 C 17.411171 20.527455 20.398006 20 24 20 z M 13 24.712891 C 15.55333 25.300564 19.501933 26 24 26 C 28.498067 26 32.44667 25.300564 35 24.712891 L 35 27.5 A 1.50015 1.50015 0 0 0 36.574219 28.998047 C 36.597039 29.003747 36.606207 29.004244 36.654297 29.021484 C 36.811709 29.077924 37.053698 29.197558 37.269531 29.359375 C 37.701196 29.683005 38 30.050552 38 30.6875 C 38 31.95061 37.745557 32.285335 37.515625 32.494141 C 37.285693 32.702946 36.806036 32.873127 36.054688 33.050781 A 1.50015 1.50015 0 0 0 34.900391 34.509766 L 34.900391 34.617188 C 34.900391 37.360233 34.068624 38.361451 33.029297 39.107422 C 31.989969 39.853392 30.648571 40.07701 29.333984 40.837891 C 28.253496 41.463318 27.537718 42.041485 26.833984 42.402344 C 26.13025 42.763202 25.403878 43 24 43 C 22.596122 43 21.869837 42.763147 21.166016 42.402344 C 20.462194 42.04154 19.746666 41.462852 18.666016 40.837891 C 17.351429 40.07701 16.010031 39.853392 14.970703 39.107422 C 13.931376 38.361451 13.099609 37.360233 13.099609 34.617188 L 13.099609 34.511719 A 1.50015 1.50015 0 0 0 11.945312 33.050781 C 11.19365 32.872562 10.714478 32.703151 10.484375 32.494141 C 10.254272 32.28513 10 31.95061 10 30.6875 C 10 30.050552 10.298802 29.683008 10.730469 29.359375 C 10.946302 29.197558 11.188291 29.077922 11.345703 29.021484 C 11.395193 29.003744 11.405334 29.001684 11.427734 28.996094 A 1.50015 1.50015 0 0 0 13 27.5 L 13 24.712891 z M 19.5 27 A 1.5 2.5 0 0 0 19.5 32 A 1.5 2.5 0 0 0 19.5 27 z M 28.5 27 A 1.5 2.5 0 0 0 28.5 32 A 1.5 2.5 0 0 0 28.5 27 z M 15.542969 31 C 15.542969 31 14.998047 31.489016 14.998047 33.666016 C 14.998047 36.229016 16.734375 36.359375 16.734375 36.359375 C 16.734375 36.359375 16.926437 38.84375 18.773438 38.84375 C 19.571438 38.84375 20.036656 38.451969 20.097656 38.417969 C 20.201656 38.542969 21.034781 40 22.300781 40 C 23.284781 40 23.978516 39.296875 23.978516 39.296875 C 23.978516 39.296875 24.748875 39.962891 25.796875 39.962891 C 26.987875 39.962891 27.902344 38.441406 27.902344 38.441406 C 27.902344 38.441406 28.374344 38.839844 29.277344 38.839844 C 30.180344 38.839844 31.074781 38.089125 31.300781 36.328125 C 32.034781 36.328125 33 35.199234 33 33.740234 C 33 31.553234 32.476562 31.027344 32.476562 31.027344 C 31.930563 31.951344 30.120891 32.958453 28.462891 33.564453 C 28.267891 35.485453 26.355 37 24 37 C 21.642 37 19.729109 35.483547 19.537109 33.560547 C 16.961109 32.604547 15.542969 31 15.542969 31 z"/></svg>