<svg xmlns="http://www.w3.org/2000/svg"  viewBox="0 0 48 48" width="24px" height="24px"><path d="M 12.332031 5 C 11.043031 5 10 5.9205938 10 7.0585938 L 10 25.914062 C 6.401 28.047062 4 32.256 4 36.5 C 4 37.329 4.672 38 5.5 38 C 6.328 38 7 37.329 7 36.5 C 7 33.985 8.177 31.420828 10 29.673828 L 10 37.941406 C 10 39.079406 11.043031 40 12.332031 40 L 16 40 L 16 44.5 C 16 45.329 16.672 46 17.5 46 C 18.328 46 19 45.329 19 44.5 L 19 40 L 29 40 L 29 44.5 C 29 45.329 29.672 46 30.5 46 C 31.328 46 32 45.329 32 44.5 L 32 40 L 35.667969 40 C 36.956969 40 38 39.079406 38 37.941406 L 38 28.443359 C 41.985 26.609359 44.058594 22.774578 44.058594 18.517578 C 44.058594 17.667578 43.369531 16.978516 42.519531 16.978516 C 41.669531 16.978516 40.980469 17.667578 40.980469 18.517578 C 40.980469 21.080578 40.137 23.416438 38 24.898438 L 38 7.0585938 C 38 5.9205938 36.956016 5 35.666016 5 L 12.332031 5 z M 13 8 L 35 8 L 35 37 L 13 37 L 13 8 z M 17.5 12 A 1.5 1.5 0 0 0 17.5 15 A 1.5 1.5 0 0 0 17.5 12 z M 30.5 12 A 1.5 1.5 0 0 0 30.5 15 A 1.5 1.5 0 0 0 30.5 12 z M 21.382812 17.003906 C 20.800156 17.049188 20.272672 17.435891 20.076172 18.025391 C 19.813172 18.810391 20.239391 19.661828 21.025391 19.923828 L 21.681641 20.142578 C 22.589641 20.445578 23.544047 20.595703 24.498047 20.595703 C 25.452047 20.595703 26.408406 20.445578 27.316406 20.142578 L 27.972656 19.923828 C 28.758656 19.661828 29.184875 18.810391 28.921875 18.025391 C 28.658875 17.239391 27.808438 16.815125 27.023438 17.078125 L 26.367188 17.296875 C 25.162187 17.697875 23.835859 17.697875 22.630859 17.296875 L 21.974609 17.078125 C 21.778109 17.012125 21.577031 16.988812 21.382812 17.003906 z M 18.5 28 C 18.224 28 18 28.224 18 28.5 L 18 30 L 16.5 30 C 16.224 30 16 30.224 16 30.5 L 16 31.5 C 16 31.776 16.224 32 16.5 32 L 18 32 L 18 33.5 C 18 33.776 18.224 34 18.5 34 L 19.5 34 C 19.776 34 20 33.776 20 33.5 L 20 32 L 21.5 32 C 21.776 32 22 31.776 22 31.5 L 22 30.5 C 22 30.224 21.776 30 21.5 30 L 20 30 L 20 28.5 C 20 28.224 19.776 28 19.5 28 L 18.5 28 z M 30 30 A 2 2 0 0 0 30 34 A 2 2 0 0 0 30 30 z"/></svg>