<svg fill="none" viewBox="0 0 24 24" height="24" width="24" xmlns="http://www.w3.org/2000/svg">
  <path fill="white" d="M5.69 18.57 c-1.37 -0.14 -2.43 -1.12 -2.66 -2.44 -0.06 -0.35 -0.04 -0.89 0.05 -1.24 0.08 -0.30 0.27 -0.72 0.45 -0.96 0.07 -0.09 1.61 -1.86 3.43 -3.93 l3.30 -3.76 0.04 -0.28 c0.23 -1.39 1.14 -2.63 2.42 -3.29 0.35 -0.18 0.88 -0.37 1.27 -0.44 0.37 -0.07 1.29 -0.07 1.63 -0 0.73 0.14 1.37 0.42 1.93 0.85 2.02 1.52 2.43 4.38 0.90 6.41 -0.67 0.89 -1.69 1.52 -2.76 1.72 -0.16 0.03 -0.31 0.06 -0.34 0.07 -0.03 0.01 -1.75 1.50 -3.82 3.33 -2.07 1.82 -3.82 3.35 -3.89 3.40 -0.29 0.22 -0.72 0.40 -1.10 0.49 -0.23 0.05 -0.67 0.08 -0.85 0.06z m0.56 -1.60 c0.17 -0.04 0.36 -0.13 0.49 -0.23 0.04 -0.03 1.66 -1.45 3.60 -3.15 l3.51 -3.09 -1.39 -1.39 c-0.76 -0.76 -1.40 -1.39 -1.41 -1.39 -0.01 0 -1.17 1.31 -2.58 2.91 -3.75 4.27 -3.70 4.21 -3.76 4.32 -0.29 0.57 -0.20 1.21 0.23 1.63 0.35 0.34 0.83 0.48 1.30 0.37z m9.21 -7.28 c0.49 -0.09 1.08 -0.41 1.47 -0.80 1.06 -1.05 1.19 -2.74 0.32 -3.92 -0.17 -0.22 -0.52 -0.57 -0.73 -0.71 -1.52 -1.03 -3.60 -0.48 -4.40 1.16 -0.13 0.27 -0.26 0.67 -0.26 0.80 0 0.06 0.31 0.38 1.71 1.78 1.09 1.09 1.73 1.71 1.76 1.71 0.02 -0.01 0.08 -0.02 0.13 -0.03z"></path>
</svg>